<svg 
 xmlns="http://www.w3.org/2000/svg"
 xmlns:xlink="http://www.w3.org/1999/xlink"
 width="201px" height="200px">
<path fill-rule="evenodd"  fill-opacity="0.251" fill="rgb(94, 104, 112)"
 d="M100.469,200.000 C45.240,200.000 0.469,155.228 0.469,100.000 C0.469,44.772 45.240,-0.000 100.469,-0.000 C155.697,-0.000 200.469,44.772 200.469,100.000 C200.469,155.228 155.697,200.000 100.469,200.000 ZM100.469,6.251 C48.692,6.251 6.719,48.223 6.719,100.000 C6.719,151.777 48.692,193.749 100.469,193.749 C152.245,193.749 194.219,151.777 194.219,100.000 C194.219,48.223 152.245,6.251 100.469,6.251 Z"/>
<path fill-rule="evenodd"  fill-opacity="0.502" fill="rgb(94, 104, 112)"
 d="M84.258,129.404 L58.544,129.404 C57.361,129.404 56.401,128.447 56.401,127.268 L56.401,122.996 C56.401,121.815 57.361,120.858 58.544,120.858 L84.258,120.858 C85.442,120.858 86.401,121.815 86.401,122.996 L86.401,127.268 C86.401,128.447 85.442,129.404 84.258,129.404 ZM45.687,99.496 L79.973,99.496 C81.156,99.496 82.116,100.452 82.116,101.632 L82.116,105.905 C82.116,107.086 81.156,108.042 79.973,108.042 L45.687,108.042 C44.504,108.042 43.544,107.086 43.544,105.905 L43.544,101.632 C43.544,100.452 44.504,99.496 45.687,99.496 ZM77.830,80.270 L77.830,84.542 C77.830,85.723 76.870,86.678 75.687,86.678 L32.830,86.678 C31.646,86.678 30.687,85.723 30.687,84.542 L30.687,80.270 C30.687,79.091 31.646,78.134 32.830,78.134 L75.687,78.134 C76.870,78.134 77.830,79.091 77.830,80.270 ZM173.117,137.948 L107.830,137.948 C105.463,137.948 103.544,136.036 103.544,133.675 L103.544,84.542 L150.687,110.177 L180.102,94.182 C180.474,97.328 180.687,100.523 180.687,103.768 C180.687,115.983 177.963,127.558 173.117,137.948 ZM178.348,84.454 L150.687,99.496 L103.544,73.861 C103.544,71.502 105.463,69.589 107.830,69.589 L173.116,69.589 C175.321,74.315 177.083,79.287 178.348,84.454 Z"/>
</svg>